<svg xmlns="http://www.w3.org/2000/svg" width="93.125" height="95.009" viewBox="0 0 93.125 95.009">
  <g id="error_image" transform="translate(18.888 17.446)">
    <path id="Path_1410" data-name="Path 1410" d="M34.274.167C48.256,2.629,71.6,20.378,71.6,38.2S54.067,61.039,36.127,66.013-5.195,49.475,1.025,36.259,20.292-2.295,34.274.167Z" transform="matrix(0.486, -0.874, 0.874, 0.486, -18.888, 45.136)" fill="#ef625f" opacity="0.2"/>
    <path id="Path_1405" data-name="Path 1405" d="M123.213,160.9c-15.379,0-31.025-13.819-31.025-29.2s7.1-26.135,22.48-26.135,37.859,8.737,33.3,26.135S138.591,160.9,123.213,160.9Z" transform="translate(-90.34 -101.538)" fill="#ef625f" opacity="0.5"/>
    <path id="Path_1407" data-name="Path 1407" d="M146.924,133.818c0-12.981-8.524-25.24-23.5-23.5s-23.5,10.523-23.5,23.5,10.4,18.641,23.5,23.5S146.924,146.8,146.924,133.818Z" transform="translate(-93.683 -103.656)" fill="#ef625f"/>
    <g id="Group_1833" data-name="Group 1833" transform="translate(20.916 21.339)">
      <path id="Path_1408" data-name="Path 1408" d="M142.754,150.492a1.964,1.964,0,1,1-2.765,2.764l-13.528-13.529a1.964,1.964,0,1,1,2.763-2.764Z" transform="translate(-125.785 -136.287)" fill="#fff"/>
      <path id="Path_1409" data-name="Path 1409" d="M129.225,153.256a1.964,1.964,0,1,1-2.763-2.764l13.528-13.53a1.964,1.964,0,1,1,2.765,2.764Z" transform="translate(-125.785 -136.287)" fill="#fff"/>
    </g>
  </g>
</svg>
